<svg width="32" height="32" viewBox="0 0 32 32" fill="none" xmlns="http://www.w3.org/2000/svg">
  <rect width="32" height="32" rx="8" fill="#FFF7F0"/>
  <path d="M16 4.5c6.351 0 11.5 5.149 11.5 11.5 0 1.45-.268 2.836-.757 4.113a3.6 3.6 0 0 0-4.356 4.356A11.45 11.45 0 0 1 16 27.5C9.649 27.5 4.5 22.351 4.5 16S9.649 4.5 16 4.5Z" fill="#F0562D"/>
  <circle cx="12.4" cy="13.2" r="1.8" fill="white"/>
  <circle cx="19.6" cy="13.2" r="1.8" fill="white"/>
  <path d="M11.6 18.8c1.05 1.5 2.6 2.4 4.4 2.4s3.35-.9 4.4-2.4" stroke="white" stroke-width="1.8" stroke-linecap="round"/>
</svg>
